STARTFONT 2.1
FONT -Monotype-Bembo-Bold-I-Normal--14-140-72-72-P-74-iso8859-1
SIZE 14 72 72
FONTBOUNDINGBOX 20 16 -3 -3

STARTPROPERTIES 22
FOUNDRY "Monotype"
FAMILY_NAME "Bembo"
WEIGHT_NAME "Bold"
SLANT "I"
SETWIDTH_NAME "Normal"
ADD_STYLE_NAME ""
PIXEL_SIZE 14
POINT_SIZE 140
RESOLUTION_X 72
RESOLUTION_Y 72
SPACING "P"
AVERAGE_WIDTH 74
CHARSET_REGISTRY "iso8859"
CHARSET_ENCODING "1"
COPYRIGHT "Copyright (c) 1996 Monotype Typography Ltd."
CAP_HEIGHT 9
X_HEIGHT 6
WEIGHT 10
QUAD_WIDTH 10
DEFAULT_CHAR 32
FONT_DESCENT 3
FONT_ASCENT 13
ENDPROPERTIES

CHARS 191

STARTCHAR space
ENCODING 32
SWIDTH 278 0
DWIDTH 4 0
BBX 0 0 0 0
BITMAP
ENDCHAR

STARTCHAR exclam
ENCODING 33
SWIDTH 323 0
DWIDTH 5 0
BBX 4 10 1 0
BITMAP
30
30
30
60
60
40
40
00
C0
C0
ENDCHAR

STARTCHAR quotedbl
ENCODING 34
SWIDTH 552 0
DWIDTH 8 0
BBX 6 5 2 5
BITMAP
CC
CC
CC
44
44
ENDCHAR

STARTCHAR numbersign
ENCODING 35
SWIDTH 668 0
DWIDTH 10 0
BBX 9 10 0 0
BITMAP
1100
1100
1100
FF80
2200
2200
FF80
4400
4400
4400
ENDCHAR

STARTCHAR dollar
ENCODING 36
SWIDTH 469 0
DWIDTH 7 0
BBX 7 13 0 -2
BITMAP
04
3C
6A
6A
38
38
18
1C
2C
AC
78
20
20
ENDCHAR

STARTCHAR percent
ENCODING 37
SWIDTH 844 0
DWIDTH 13 0
BBX 11 10 1 0
BITMAP
3180
5100
D300
B200
A660
C4A0
0DA0
0960
1940
1180
ENDCHAR

STARTCHAR ampersand
ENCODING 38
SWIDTH 729 0
DWIDTH 11 0
BBX 11 10 1 0
BITMAP
1E00
3300
6100
6040
3820
63C0
C680
C080
C100
7E00
ENDCHAR

STARTCHAR quoteright
ENCODING 39
SWIDTH 323 0
DWIDTH 5 0
BBX 3 4 1 6
BITMAP
60
60
20
C0
ENDCHAR

STARTCHAR parenleft
ENCODING 40
SWIDTH 292 0
DWIDTH 4 0
BBX 5 13 1 -3
BITMAP
08
10
20
60
60
C0
C0
C0
C0
C0
40
40
20
ENDCHAR

STARTCHAR parenright
ENCODING 41
SWIDTH 292 0
DWIDTH 4 0
BBX 5 13 -2 -3
BITMAP
20
10
10
18
18
18
18
18
30
30
20
40
80
ENDCHAR

STARTCHAR asterisk
ENCODING 42
SWIDTH 521 0
DWIDTH 8 0
BBX 6 7 2 3
BITMAP
10
10
D0
7C
70
90
10
ENDCHAR

STARTCHAR plus
ENCODING 43
SWIDTH 667 0
DWIDTH 10 0
BBX 7 7 2 1
BITMAP
10
10
10
FE
10
10
10
ENDCHAR

STARTCHAR comma
ENCODING 44
SWIDTH 323 0
DWIDTH 5 0
BBX 3 4 -1 -2
BITMAP
60
60
20
C0
ENDCHAR

STARTCHAR minus
ENCODING 45
SWIDTH 667 0
DWIDTH 10 0
BBX 8 1 1 4
BITMAP
FF
ENDCHAR

STARTCHAR period
ENCODING 46
SWIDTH 323 0
DWIDTH 5 0
BBX 2 2 0 0
BITMAP
C0
C0
ENDCHAR

STARTCHAR slash
ENCODING 47
SWIDTH 531 0
DWIDTH 8 0
BBX 7 11 1 -1
BITMAP
06
06
0C
0C
18
18
30
30
60
60
C0
ENDCHAR

STARTCHAR zero
ENCODING 48
SWIDTH 469 0
DWIDTH 7 0
BBX 7 10 0 0
BITMAP
1C
36
66
66
E6
CC
CC
CC
D8
70
ENDCHAR

STARTCHAR one
ENCODING 49
SWIDTH 469 0
DWIDTH 7 0
BBX 5 10 1 0
BITMAP
18
38
58
30
30
30
30
60
60
F0
ENDCHAR

STARTCHAR two
ENCODING 50
SWIDTH 469 0
DWIDTH 7 0
BBX 7 10 0 0
BITMAP
1C
26
26
06
0C
08
10
24
7C
FC
ENDCHAR

STARTCHAR three
ENCODING 51
SWIDTH 469 0
DWIDTH 7 0
BBX 7 10 0 0
BITMAP
0C
16
06
0C
18
2C
0C
0C
C8
70
ENDCHAR

STARTCHAR four
ENCODING 52
SWIDTH 469 0
DWIDTH 7 0
BBX 7 10 0 0
BITMAP
02
06
0C
1C
2C
58
FE
18
30
30
ENDCHAR

STARTCHAR five
ENCODING 53
SWIDTH 469 0
DWIDTH 7 0
BBX 7 11 0 0
BITMAP
02
1E
1E
20
20
38
2C
0C
0C
C8
70
ENDCHAR

STARTCHAR six
ENCODING 54
SWIDTH 469 0
DWIDTH 7 0
BBX 7 10 0 0
BITMAP
06
18
30
60
78
EC
CC
CC
D8
70
ENDCHAR

STARTCHAR seven
ENCODING 55
SWIDTH 469 0
DWIDTH 7 0
BBX 7 10 1 0
BITMAP
7E
7C
84
0C
08
18
10
30
20
60
ENDCHAR

STARTCHAR eight
ENCODING 56
SWIDTH 469 0
DWIDTH 7 0
BBX 7 10 0 0
BITMAP
1C
36
66
64
38
5C
CC
CC
D8
70
ENDCHAR

STARTCHAR nine
ENCODING 57
SWIDTH 469 0
DWIDTH 7 0
BBX 7 10 0 0
BITMAP
1C
36
66
66
66
3C
0C
18
30
C0
ENDCHAR

STARTCHAR colon
ENCODING 58
SWIDTH 323 0
DWIDTH 5 0
BBX 3 6 1 0
BITMAP
60
60
00
00
C0
C0
ENDCHAR

STARTCHAR semicolon
ENCODING 59
SWIDTH 323 0
DWIDTH 5 0
BBX 4 8 -1 -2
BITMAP
30
30
00
00
60
60
20
C0
ENDCHAR

STARTCHAR less
ENCODING 60
SWIDTH 667 0
DWIDTH 10 0
BBX 8 8 1 1
BITMAP
03
0C
30
C0
60
18
06
01
ENDCHAR

STARTCHAR equal
ENCODING 61
SWIDTH 667 0
DWIDTH 10 0
BBX 8 4 1 3
BITMAP
FF
00
00
FF
ENDCHAR

STARTCHAR greater
ENCODING 62
SWIDTH 667 0
DWIDTH 10 0
BBX 8 8 1 1
BITMAP
80
60
18
06
03
0C
30
C0
ENDCHAR

STARTCHAR question
ENCODING 63
SWIDTH 427 0
DWIDTH 6 0
BBX 5 10 1 0
BITMAP
70
78
08
18
30
60
40
00
C0
C0
ENDCHAR

STARTCHAR at
ENCODING 64
SWIDTH 833 0
DWIDTH 12 0
BBX 12 13 0 -3
BITMAP
07C0
1820
2010
4290
4590
8990
9920
9B20
9F40
9990
4020
20C0
1F00
ENDCHAR

STARTCHAR A
ENCODING 65
SWIDTH 719 0
DWIDTH 11 0
BBX 10 10 0 0
BITMAP
0180
0380
0580
0580
0980
1F80
1180
2180
4180
E3C0
ENDCHAR

STARTCHAR B
ENCODING 66
SWIDTH 656 0
DWIDTH 10 0
BBX 9 10 0 0
BITMAP
3F00
1980
1980
3100
3E00
3100
3180
6180
6300
FE00
ENDCHAR

STARTCHAR C
ENCODING 67
SWIDTH 729 0
DWIDTH 11 0
BBX 9 10 1 0
BITMAP
0F00
3180
6080
6000
C000
C000
C000
C100
6300
3C00
ENDCHAR

STARTCHAR D
ENCODING 68
SWIDTH 802 0
DWIDTH 12 0
BBX 11 10 0 0
BITMAP
3F00
18C0
1860
3060
3060
3060
30C0
60C0
6180
FE00
ENDCHAR

STARTCHAR E
ENCODING 69
SWIDTH 656 0
DWIDTH 10 0
BBX 10 10 0 0
BITMAP
3FC0
1840
1800
3100
3E00
3200
3000
6080
6100
FF00
ENDCHAR

STARTCHAR F
ENCODING 70
SWIDTH 604 0
DWIDTH 9 0
BBX 10 10 0 0
BITMAP
3FC0
1840
1800
3100
3E00
3200
3000
6000
6000
F000
ENDCHAR

STARTCHAR G
ENCODING 71
SWIDTH 802 0
DWIDTH 12 0
BBX 10 10 1 0
BITMAP
0F80
30C0
6040
6000
C000
C000
C3C0
C180
6180
3E00
ENDCHAR

STARTCHAR H
ENCODING 72
SWIDTH 802 0
DWIDTH 12 0
BBX 12 10 0 0
BITMAP
3CF0
1860
1860
30C0
3FC0
30C0
30C0
6180
6180
F3C0
ENDCHAR

STARTCHAR I
ENCODING 73
SWIDTH 375 0
DWIDTH 6 0
BBX 6 10 0 0
BITMAP
3C
18
18
30
30
30
30
60
60
F0
ENDCHAR

STARTCHAR J
ENCODING 74
SWIDTH 354 0
DWIDTH 5 0
BBX 8 13 -3 -3
BITMAP
0F
06
06
06
0C
0C
0C
0C
18
18
18
D0
E0
ENDCHAR

STARTCHAR K
ENCODING 75
SWIDTH 740 0
DWIDTH 11 0
BBX 11 10 0 0
BITMAP
3DE0
1880
1900
3200
3600
3E00
3700
6300
6380
F1C0
ENDCHAR

STARTCHAR L
ENCODING 76
SWIDTH 604 0
DWIDTH 9 0
BBX 9 10 0 0
BITMAP
3E00
1800
1800
3000
3000
3000
3000
6080
6180
FF00
ENDCHAR

STARTCHAR M
ENCODING 77
SWIDTH 896 0
DWIDTH 13 0
BBX 14 10 0 0
BITMAP
381C
1838
1878
1C58
2CB0
2D30
2F30
4660
4460
E4F0
ENDCHAR

STARTCHAR N
ENCODING 78
SWIDTH 771 0
DWIDTH 12 0
BBX 12 10 0 0
BITMAP
3870
1C20
1C20
1620
2640
2340
23C0
4180
4180
E080
ENDCHAR

STARTCHAR O
ENCODING 79
SWIDTH 823 0
DWIDTH 12 0
BBX 10 10 1 0
BITMAP
0F00
3180
60C0
60C0
C0C0
C0C0
C180
C180
6300
3C00
ENDCHAR

STARTCHAR P
ENCODING 80
SWIDTH 635 0
DWIDTH 10 0
BBX 10 10 0 0
BITMAP
3F80
18C0
18C0
30C0
3180
3600
3000
6000
6000
F000
ENDCHAR

STARTCHAR Q
ENCODING 81
SWIDTH 823 0
DWIDTH 12 0
BBX 10 12 1 -2
BITMAP
0F00
3180
60C0
60C0
C0C0
C0C0
C180
C180
6300
3E00
0700
01C0
ENDCHAR

STARTCHAR R
ENCODING 82
SWIDTH 688 0
DWIDTH 10 0
BBX 10 10 0 0
BITMAP
3F00
1980
1980
3180
3300
3E00
3600
6300
6300
F1C0
ENDCHAR

STARTCHAR S
ENCODING 83
SWIDTH 521 0
DWIDTH 8 0
BBX 7 10 0 0
BITMAP
1E
36
32
30
18
18
0C
8C
CC
F8
ENDCHAR

STARTCHAR T
ENCODING 84
SWIDTH 698 0
DWIDTH 10 0
BBX 10 10 1 0
BITMAP
7FC0
8C40
0C00
1800
1800
1800
1800
3000
3000
7800
ENDCHAR

STARTCHAR U
ENCODING 85
SWIDTH 750 0
DWIDTH 11 0
BBX 11 10 1 0
BITMAP
78E0
3040
3040
6080
6080
6080
C100
C100
C200
7C00
ENDCHAR

STARTCHAR V
ENCODING 86
SWIDTH 677 0
DWIDTH 10 0
BBX 10 10 1 0
BITMAP
F1C0
6080
6100
6200
6200
6400
6800
7000
6000
4000
ENDCHAR

STARTCHAR W
ENCODING 87
SWIDTH 1063 0
DWIDTH 16 0
BBX 15 10 2 0
BITMAP
F3CE
6184
6188
6388
6590
69A0
69A0
71C0
6180
4100
ENDCHAR

STARTCHAR X
ENCODING 88
SWIDTH 760 0
DWIDTH 11 0
BBX 11 10 0 0
BITMAP
7CE0
3840
1880
1D00
0E00
0E00
1700
2300
4380
E7C0
ENDCHAR

STARTCHAR Y
ENCODING 89
SWIDTH 667 0
DWIDTH 10 0
BBX 9 10 2 0
BITMAP
F380
6100
6200
3400
3800
3000
3000
6000
6000
F000
ENDCHAR

STARTCHAR Z
ENCODING 90
SWIDTH 667 0
DWIDTH 10 0
BBX 11 10 0 0
BITMAP
1FE0
30C0
2180
0300
0600
0C00
1800
3040
6080
FF80
ENDCHAR

STARTCHAR bracketleft
ENCODING 91
SWIDTH 365 0
DWIDTH 5 0
BBX 6 13 1 -3
BITMAP
3C
30
30
30
60
60
60
60
60
C0
C0
C0
F0
ENDCHAR

STARTCHAR backslash
ENCODING 92
SWIDTH 302 0
DWIDTH 5 0
BBX 5 11 1 -1
BITMAP
C0
C0
C0
60
60
60
30
30
30
18
18
ENDCHAR

STARTCHAR bracketright
ENCODING 93
SWIDTH 365 0
DWIDTH 5 0
BBX 6 13 -1 -3
BITMAP
3C
0C
0C
0C
18
18
18
18
18
30
30
30
F0
ENDCHAR

STARTCHAR asciicircum
ENCODING 94
SWIDTH 573 0
DWIDTH 9 0
BBX 7 5 1 5
BITMAP
10
28
44
44
82
ENDCHAR

STARTCHAR underscore
ENCODING 95
SWIDTH 500 0
DWIDTH 8 0
BBX 8 1 -1 -2
BITMAP
FF
ENDCHAR

STARTCHAR quoteleft
ENCODING 96
SWIDTH 323 0
DWIDTH 5 0
BBX 3 4 2 5
BITMAP
60
80
C0
C0
ENDCHAR

STARTCHAR a
ENCODING 97
SWIDTH 458 0
DWIDTH 7 0
BBX 6 6 0 0
BITMAP
3C
6C
CC
D8
F8
DC
ENDCHAR

STARTCHAR b
ENCODING 98
SWIDTH 448 0
DWIDTH 7 0
BBX 6 10 0 0
BITMAP
70
30
30
60
78
6C
CC
CC
D8
70
ENDCHAR

STARTCHAR c
ENCODING 99
SWIDTH 333 0
DWIDTH 5 0
BBX 5 6 0 0
BITMAP
38
68
C0
C0
D0
60
ENDCHAR

STARTCHAR d
ENCODING 100
SWIDTH 448 0
DWIDTH 7 0
BBX 7 10 0 0
BITMAP
0E
06
06
0C
3C
6C
CC
D8
D8
EC
ENDCHAR

STARTCHAR e
ENCODING 101
SWIDTH 375 0
DWIDTH 6 0
BBX 6 6 0 0
BITMAP
38
6C
F8
C0
C8
70
ENDCHAR

STARTCHAR f
ENCODING 102
SWIDTH 271 0
DWIDTH 4 0
BBX 10 13 -3 -3
BITMAP
01C0
02C0
0600
0600
1F00
0C00
0C00
0C00
1800
1800
1800
D000
E000
ENDCHAR

STARTCHAR g
ENCODING 103
SWIDTH 438 0
DWIDTH 7 0
BBX 8 9 -2 -3
BITMAP
0F
16
36
34
18
30
5C
CE
7C
ENDCHAR

STARTCHAR h
ENCODING 104
SWIDTH 500 0
DWIDTH 8 0
BBX 7 10 0 0
BITMAP
70
30
30
60
6C
76
66
CC
CC
CE
ENDCHAR

STARTCHAR i
ENCODING 105
SWIDTH 292 0
DWIDTH 4 0
BBX 4 9 0 0
BITMAP
30
30
00
E0
60
60
C0
C0
E0
ENDCHAR

STARTCHAR j
ENCODING 106
SWIDTH 271 0
DWIDTH 4 0
BBX 7 12 -3 -3
BITMAP
06
06
00
1C
0C
0C
0C
18
18
18
D0
60
ENDCHAR

STARTCHAR k
ENCODING 107
SWIDTH 500 0
DWIDTH 8 0
BBX 8 10 0 0
BITMAP
70
30
30
30
6E
76
6C
D8
CD
C6
ENDCHAR

STARTCHAR l
ENCODING 108
SWIDTH 271 0
DWIDTH 4 0
BBX 4 10 0 0
BITMAP
70
30
30
60
60
60
60
C0
C0
E0
ENDCHAR

STARTCHAR m
ENCODING 109
SWIDTH 750 0
DWIDTH 11 0
BBX 9 6 0 0
BITMAP
FB00
6D80
6D80
DB00
DB00
DB80
ENDCHAR

STARTCHAR n
ENCODING 110
SWIDTH 510 0
DWIDTH 8 0
BBX 7 6 0 0
BITMAP
EC
76
66
CC
CC
CE
ENDCHAR

STARTCHAR o
ENCODING 111
SWIDTH 448 0
DWIDTH 7 0
BBX 6 6 0 0
BITMAP
38
6C
CC
CC
D8
70
ENDCHAR

STARTCHAR p
ENCODING 112
SWIDTH 490 0
DWIDTH 7 0
BBX 8 9 -2 -3
BITMAP
36
1B
1B
33
36
3C
60
60
F0
ENDCHAR

STARTCHAR q
ENCODING 113
SWIDTH 448 0
DWIDTH 7 0
BBX 6 9 0 -3
BITMAP
3C
6C
CC
D8
F8
D8
30
30
78
ENDCHAR

STARTCHAR r
ENCODING 114
SWIDTH 333 0
DWIDTH 5 0
BBX 5 6 0 0
BITMAP
D8
70
60
C0
C0
C0
ENDCHAR

STARTCHAR s
ENCODING 115
SWIDTH 344 0
DWIDTH 5 0
BBX 5 6 -1 0
BITMAP
38
68
60
30
B0
E0
ENDCHAR

STARTCHAR t
ENCODING 116
SWIDTH 302 0
DWIDTH 5 0
BBX 5 8 0 0
BITMAP
10
30
F8
60
60
C0
D0
E0
ENDCHAR

STARTCHAR u
ENCODING 117
SWIDTH 500 0
DWIDTH 8 0
BBX 7 6 0 0
BITMAP
E6
66
66
CC
DC
6E
ENDCHAR

STARTCHAR v
ENCODING 118
SWIDTH 427 0
DWIDTH 6 0
BBX 7 6 -1 0
BITMAP
76
B6
32
64
68
70
ENDCHAR

STARTCHAR w
ENCODING 119
SWIDTH 667 0
DWIDTH 10 0
BBX 10 6 -1 0
BITMAP
76C0
B6C0
3640
6640
6E80
7700
ENDCHAR

STARTCHAR x
ENCODING 120
SWIDTH 500 0
DWIDTH 8 0
BBX 8 6 -1 0
BITMAP
33
5D
18
18
BA
CC
ENDCHAR

STARTCHAR y
ENCODING 121
SWIDTH 458 0
DWIDTH 7 0
BBX 7 9 -1 -3
BITMAP
66
B2
34
34
38
30
30
60
F0
ENDCHAR

STARTCHAR z
ENCODING 122
SWIDTH 490 0
DWIDTH 7 0
BBX 8 6 -1 0
BITMAP
39
5E
0C
10
7A
9C
ENDCHAR

STARTCHAR braceleft
ENCODING 123
SWIDTH 344 0
DWIDTH 5 0
BBX 3 13 1 -3
BITMAP
20
40
40
40
40
40
80
40
40
40
40
40
20
ENDCHAR

STARTCHAR bar
ENCODING 124
SWIDTH 566 0
DWIDTH 8 0
BBX 1 12 3 -2
BITMAP
80
80
80
80
80
80
80
80
80
80
80
80
ENDCHAR

STARTCHAR braceright
ENCODING 125
SWIDTH 344 0
DWIDTH 5 0
BBX 3 13 1 -3
BITMAP
80
40
40
40
40
40
20
40
40
40
40
40
80
ENDCHAR

STARTCHAR asciitilde
ENCODING 126
SWIDTH 573 0
DWIDTH 9 0
BBX 8 2 1 4
BITMAP
71
8E
ENDCHAR

STARTCHAR space
ENCODING 160
SWIDTH 278 0
DWIDTH 4 0
BBX 0 0 0 0
BITMAP
ENDCHAR

STARTCHAR exclamdown
ENCODING 161
SWIDTH 323 0
DWIDTH 5 0
BBX 4 10 0 -3
BITMAP
30
30
00
20
20
60
60
C0
C0
C0
ENDCHAR

STARTCHAR cent
ENCODING 162
SWIDTH 333 0
DWIDTH 5 0
BBX 5 12 0 -3
BITMAP
08
08
10
38
78
D0
E0
E8
70
20
40
40
ENDCHAR

STARTCHAR sterling
ENCODING 163
SWIDTH 760 0
DWIDTH 11 0
BBX 12 13 -1 -3
BITMAP
0070
0090
0100
0300
0600
0600
0C00
0C00
3F00
1800
3820
6C40
C780
ENDCHAR

STARTCHAR currency
ENCODING 164
SWIDTH 667 0
DWIDTH 10 0
BBX 7 7 1 1
BITMAP
BA
6C
C6
82
C6
6C
BA
ENDCHAR

STARTCHAR yen
ENCODING 165
SWIDTH 500 0
DWIDTH 8 0
BBX 9 10 0 0
BITMAP
F380
6100
6200
6400
FE00
3000
FE00
3000
3000
7800
ENDCHAR

STARTCHAR brokenbar
ENCODING 166
SWIDTH 566 0
DWIDTH 8 0
BBX 1 12 4 -2
BITMAP
80
80
80
80
80
00
00
80
80
80
80
80
ENDCHAR

STARTCHAR section
ENCODING 167
SWIDTH 448 0
DWIDTH 7 0
BBX 9 13 -1 -3
BITMAP
0380
0C80
1800
2800
2C00
2400
3600
1200
1A00
0A00
0C00
9800
E000
ENDCHAR

STARTCHAR dieresis
ENCODING 168
SWIDTH 333 0
DWIDTH 5 0
BBX 5 2 1 8
BITMAP
D8
D8
ENDCHAR

STARTCHAR copyright
ENCODING 169
SWIDTH 750 0
DWIDTH 11 0
BBX 11 10 0 0
BITMAP
1F00
2080
4F40
9120
B020
B020
9120
4E40
2080
1F00
ENDCHAR

STARTCHAR ordfeminine
ENCODING 170
SWIDTH 354 0
DWIDTH 5 0
BBX 4 4 1 6
BITMAP
30
50
B0
D0
ENDCHAR

STARTCHAR guillemotleft
ENCODING 171
SWIDTH 427 0
DWIDTH 6 0
BBX 7 6 -1 0
BITMAP
12
24
48
90
48
24
ENDCHAR

STARTCHAR logicalnot
ENCODING 172
SWIDTH 667 0
DWIDTH 10 0
BBX 8 4 1 3
BITMAP
FF
01
01
01
ENDCHAR

STARTCHAR hyphen
ENCODING 173
SWIDTH 417 0
DWIDTH 6 0
BBX 5 1 1 3
BITMAP
F8
ENDCHAR

STARTCHAR registered
ENCODING 174
SWIDTH 750 0
DWIDTH 11 0
BBX 11 10 0 0
BITMAP
1F00
2080
5E40
9B20
9B20
9E20
9B20
5B40
2080
1F00
ENDCHAR

STARTCHAR macron
ENCODING 175
SWIDTH 333 0
DWIDTH 5 0
BBX 5 1 2 8
BITMAP
F8
ENDCHAR

STARTCHAR degree
ENCODING 176
SWIDTH 396 0
DWIDTH 6 0
BBX 5 5 1 5
BITMAP
70
88
88
88
70
ENDCHAR

STARTCHAR plusminus
ENCODING 177
SWIDTH 668 0
DWIDTH 10 0
BBX 7 9 1 0
BITMAP
10
10
10
FE
10
10
10
00
FE
ENDCHAR

STARTCHAR twosuperior
ENCODING 178
SWIDTH 292 0
DWIDTH 4 0
BBX 4 5 1 5
BITMAP
60
10
20
40
E0
ENDCHAR

STARTCHAR threesuperior
ENCODING 179
SWIDTH 292 0
DWIDTH 4 0
BBX 4 5 0 5
BITMAP
60
10
60
10
E0
ENDCHAR

STARTCHAR acute
ENCODING 180
SWIDTH 333 0
DWIDTH 5 0
BBX 3 2 2 8
BITMAP
60
C0
ENDCHAR

STARTCHAR mu
ENCODING 181
SWIDTH 573 0
DWIDTH 9 0
BBX 10 9 -1 -3
BITMAP
1980
1980
1980
3300
3740
3B80
4000
C000
C000
ENDCHAR

STARTCHAR paragraph
ENCODING 182
SWIDTH 542 0
DWIDTH 8 0
BBX 8 13 0 -2
BITMAP
3F
7A
FA
FA
FA
7A
3A
0A
0A
0A
0A
0A
0A
ENDCHAR

STARTCHAR periodcentered
ENCODING 183
SWIDTH 323 0
DWIDTH 5 0
BBX 2 2 2 4
BITMAP
C0
C0
ENDCHAR

STARTCHAR cedilla
ENCODING 184
SWIDTH 333 0
DWIDTH 5 0
BBX 4 3 0 -3
BITMAP
60
30
E0
ENDCHAR

STARTCHAR onesuperior
ENCODING 185
SWIDTH 292 0
DWIDTH 4 0
BBX 3 5 2 5
BITMAP
60
20
40
40
E0
ENDCHAR

STARTCHAR ordmasculine
ENCODING 186
SWIDTH 333 0
DWIDTH 5 0
BBX 4 5 1 5
BITMAP
30
50
90
A0
C0
ENDCHAR

STARTCHAR guillemotright
ENCODING 187
SWIDTH 427 0
DWIDTH 6 0
BBX 7 6 -1 0
BITMAP
48
24
12
24
48
90
ENDCHAR

STARTCHAR onequarter
ENCODING 188
SWIDTH 844 0
DWIDTH 13 0
BBX 10 10 1 0
BITMAP
3040
1080
2100
2200
7400
0880
1180
2280
47C0
8100
ENDCHAR

STARTCHAR onehalf
ENCODING 189
SWIDTH 844 0
DWIDTH 13 0
BBX 10 10 1 0
BITMAP
3040
1080
2100
2200
7400
0980
1040
2080
4100
8380
ENDCHAR

STARTCHAR threequarters
ENCODING 190
SWIDTH 844 0
DWIDTH 13 0
BBX 10 10 1 0
BITMAP
6040
1080
6100
1200
E400
0880
1180
2280
47C0
8100
ENDCHAR

STARTCHAR questiondown
ENCODING 191
SWIDTH 427 0
DWIDTH 6 0
BBX 5 10 0 -3
BITMAP
18
18
00
10
30
60
C0
80
F0
70
ENDCHAR

STARTCHAR Agrave
ENCODING 192
SWIDTH 719 0
DWIDTH 11 0
BBX 10 13 0 0
BITMAP
0300
0180
0000
0180
0380
0580
0580
0980
1F80
1180
2180
4180
E3C0
ENDCHAR

STARTCHAR Aacute
ENCODING 193
SWIDTH 719 0
DWIDTH 11 0
BBX 10 13 0 0
BITMAP
00C0
0180
0000
0180
0380
0580
0580
0980
1F80
1180
2180
4180
E3C0
ENDCHAR

STARTCHAR Acircumflex
ENCODING 194
SWIDTH 719 0
DWIDTH 11 0
BBX 11 13 0 0
BITMAP
01C0
0360
0000
0180
0380
0580
0580
0980
1F80
1180
2180
4180
E3C0
ENDCHAR

STARTCHAR Atilde
ENCODING 195
SWIDTH 719 0
DWIDTH 11 0
BBX 11 13 0 0
BITMAP
03A0
05C0
0000
0180
0380
0580
0580
0980
1F80
1180
2180
4180
E3C0
ENDCHAR

STARTCHAR Adieresis
ENCODING 196
SWIDTH 719 0
DWIDTH 11 0
BBX 12 13 -1 0
BITMAP
01B0
01B0
0000
00C0
01C0
02C0
02C0
04C0
0FC0
08C0
10C0
20C0
F3E0
ENDCHAR

STARTCHAR Aring
ENCODING 197
SWIDTH 719 0
DWIDTH 11 0
BBX 10 13 0 0
BITMAP
0080
0140
0080
0180
0380
0580
0580
0980
1F80
1180
2180
4180
E3C0
ENDCHAR

STARTCHAR AE
ENCODING 198
SWIDTH 958 0
DWIDTH 14 0
BBX 14 10 0 0
BITMAP
07FC
02C4
04C0
0588
09F0
1F90
2180
2304
4308
E7F8
ENDCHAR

STARTCHAR Ccedilla
ENCODING 199
SWIDTH 729 0
DWIDTH 11 0
BBX 9 13 1 -3
BITMAP
0F80
3180
6080
6000
C000
C000
C000
C100
6300
3C00
3000
1800
7000
ENDCHAR

STARTCHAR Egrave
ENCODING 200
SWIDTH 656 0
DWIDTH 10 0
BBX 10 13 0 0
BITMAP
0C00
0600
0000
3FC0
1840
1800
3100
3E00
3200
3000
6080
6100
FF00
ENDCHAR

STARTCHAR Eacute
ENCODING 201
SWIDTH 656 0
DWIDTH 10 0
BBX 10 13 0 0
BITMAP
0300
0600
0000
3FC0
1840
1800
3100
3E00
3200
3000
6080
6100
FF00
ENDCHAR

STARTCHAR Ecircumflex
ENCODING 202
SWIDTH 656 0
DWIDTH 10 0
BBX 10 13 0 0
BITMAP
0700
0D80
0000
3FC0
1840
1800
3100
3E00
3200
3000
6080
6100
FF00
ENDCHAR

STARTCHAR Edieresis
ENCODING 203
SWIDTH 656 0
DWIDTH 10 0
BBX 10 13 0 0
BITMAP
0D80
0D80
0000
3FC0
1840
1800
3100
3E00
3200
3000
6080
6100
FF00
ENDCHAR

STARTCHAR Igrave
ENCODING 204
SWIDTH 375 0
DWIDTH 6 0
BBX 6 13 0 0
BITMAP
30
18
00
3C
18
18
30
30
30
30
60
60
F0
ENDCHAR

STARTCHAR Iacute
ENCODING 205
SWIDTH 375 0
DWIDTH 6 0
BBX 6 13 0 0
BITMAP
0C
18
00
3C
18
18
30
30
30
30
60
60
F0
ENDCHAR

STARTCHAR Icircumflex
ENCODING 206
SWIDTH 375 0
DWIDTH 6 0
BBX 7 13 0 0
BITMAP
1C
36
00
3C
18
18
30
30
30
30
60
60
F0
ENDCHAR

STARTCHAR Idieresis
ENCODING 207
SWIDTH 375 0
DWIDTH 6 0
BBX 7 13 0 0
BITMAP
36
36
00
3C
18
18
30
30
30
30
60
60
F0
ENDCHAR

STARTCHAR Eth
ENCODING 208
SWIDTH 802 0
DWIDTH 12 0
BBX 11 10 0 0
BITMAP
3F00
18C0
1860
3060
3060
FE60
30C0
60C0
6180
FE00
ENDCHAR

STARTCHAR Ntilde
ENCODING 209
SWIDTH 771 0
DWIDTH 12 0
BBX 12 13 0 0
BITMAP
03A0
05C0
0000
3870
1C20
1C20
1620
2640
2340
23C0
4180
4180
E080
ENDCHAR

STARTCHAR Ograve
ENCODING 210
SWIDTH 823 0
DWIDTH 12 0
BBX 11 13 0 0
BITMAP
0600
0300
0000
0F00
30C0
6060
6060
C060
C060
C0C0
C0C0
6180
1E00
ENDCHAR

STARTCHAR Oacute
ENCODING 211
SWIDTH 823 0
DWIDTH 12 0
BBX 11 13 0 0
BITMAP
0300
0600
0000
0F00
30C0
6060
6060
C060
C060
C0C0
C0C0
6180
1E00
ENDCHAR

STARTCHAR Ocircumflex
ENCODING 212
SWIDTH 823 0
DWIDTH 12 0
BBX 11 13 0 0
BITMAP
0700
0D80
0000
0F00
30C0
6060
6060
C060
C060
C0C0
C0C0
6180
1E00
ENDCHAR

STARTCHAR Otilde
ENCODING 213
SWIDTH 823 0
DWIDTH 12 0
BBX 11 13 0 0
BITMAP
0740
0B80
0000
0F00
30C0
6060
6060
C060
C060
C0C0
C0C0
6180
1E00
ENDCHAR

STARTCHAR Odieresis
ENCODING 214
SWIDTH 823 0
DWIDTH 12 0
BBX 11 13 0 0
BITMAP
0D80
0D80
0000
0F00
30C0
6060
6060
C060
C060
C0C0
C0C0
6180
1E00
ENDCHAR

STARTCHAR multiply
ENCODING 215
SWIDTH 667 0
DWIDTH 10 0
BBX 8 8 1 1
BITMAP
81
42
24
18
18
24
42
81
ENDCHAR

STARTCHAR Oslash
ENCODING 216
SWIDTH 823 0
DWIDTH 12 0
BBX 11 10 0 0
BITMAP
0F20
30C0
6160
6260
C460
C860
D0C0
E0C0
6180
9E00
ENDCHAR

STARTCHAR Ugrave
ENCODING 217
SWIDTH 750 0
DWIDTH 11 0
BBX 11 13 1 0
BITMAP
0C00
0600
0000
78E0
3040
3040
6080
6080
6080
C100
C100
C200
7C00
ENDCHAR

STARTCHAR Uacute
ENCODING 218
SWIDTH 750 0
DWIDTH 11 0
BBX 11 13 1 0
BITMAP
0300
0600
0000
78E0
3040
3040
6080
6080
6080
C100
C100
C200
7C00
ENDCHAR

STARTCHAR Ucircumflex
ENCODING 219
SWIDTH 750 0
DWIDTH 11 0
BBX 11 13 1 0
BITMAP
0700
0D80
0000
78E0
3040
3040
6080
6080
6080
C100
C100
C200
7C00
ENDCHAR

STARTCHAR Udieresis
ENCODING 220
SWIDTH 750 0
DWIDTH 11 0
BBX 11 13 1 0
BITMAP
0D80
0D80
0000
78E0
3040
3040
6080
6080
6080
C100
C100
C200
7C00
ENDCHAR

STARTCHAR Yacute
ENCODING 221
SWIDTH 667 0
DWIDTH 10 0
BBX 9 13 1 0
BITMAP
0600
0C00
0000
F380
6100
6200
6400
6800
3000
3000
3000
3000
7800
ENDCHAR

STARTCHAR Thorn
ENCODING 222
SWIDTH 635 0
DWIDTH 10 0
BBX 9 10 0 0
BITMAP
3C00
1800
1F00
3180
3180
3180
3300
7600
6000
F000
ENDCHAR

STARTCHAR germandbls
ENCODING 223
SWIDTH 490 0
DWIDTH 7 0
BBX 11 13 -3 -3
BITMAP
01C0
0360
0260
0640
0780
06C0
0CC0
0CC0
0880
0B00
1800
D000
E000
ENDCHAR

STARTCHAR agrave
ENCODING 224
SWIDTH 458 0
DWIDTH 7 0
BBX 6 9 0 0
BITMAP
18
0C
00
1C
2C
4C
D8
F8
DC
ENDCHAR

STARTCHAR aacute
ENCODING 225
SWIDTH 458 0
DWIDTH 7 0
BBX 6 9 0 0
BITMAP
0C
18
00
1C
2C
4C
D8
F8
DC
ENDCHAR

STARTCHAR acircumflex
ENCODING 226
SWIDTH 458 0
DWIDTH 7 0
BBX 7 9 0 0
BITMAP
1C
36
00
1C
2C
4C
D8
F8
DC
ENDCHAR

STARTCHAR atilde
ENCODING 227
SWIDTH 458 0
DWIDTH 7 0
BBX 8 9 0 0
BITMAP
1D
2E
00
1C
2C
4C
D8
F8
DC
ENDCHAR

STARTCHAR adieresis
ENCODING 228
SWIDTH 458 0
DWIDTH 7 0
BBX 7 9 0 0
BITMAP
36
36
00
1C
2C
4C
D8
F8
DC
ENDCHAR

STARTCHAR aring
ENCODING 229
SWIDTH 458 0
DWIDTH 7 0
BBX 6 10 0 0
BITMAP
08
14
08
00
1C
2C
4C
D8
F8
DC
ENDCHAR

STARTCHAR ae
ENCODING 230
SWIDTH 615 0
DWIDTH 9 0
BBX 9 6 0 0
BITMAP
1F80
2D80
4F00
C800
D900
EE00
ENDCHAR

STARTCHAR ccedilla
ENCODING 231
SWIDTH 333 0
DWIDTH 5 0
BBX 5 9 1 -3
BITMAP
38
68
C0
C0
D0
60
40
60
C0
ENDCHAR

STARTCHAR egrave
ENCODING 232
SWIDTH 375 0
DWIDTH 6 0
BBX 6 9 0 0
BITMAP
30
18
00
38
6C
F8
C0
C8
70
ENDCHAR

STARTCHAR eacute
ENCODING 233
SWIDTH 375 0
DWIDTH 6 0
BBX 6 9 0 0
BITMAP
0C
18
00
38
6C
F8
C0
C8
70
ENDCHAR

STARTCHAR ecircumflex
ENCODING 234
SWIDTH 375 0
DWIDTH 6 0
BBX 7 9 0 0
BITMAP
1C
36
00
38
6C
F8
C0
C8
70
ENDCHAR

STARTCHAR edieresis
ENCODING 235
SWIDTH 375 0
DWIDTH 6 0
BBX 7 9 0 0
BITMAP
36
36
00
38
6C
F8
C0
C8
70
ENDCHAR

STARTCHAR igrave
ENCODING 236
SWIDTH 292 0
DWIDTH 4 0
BBX 4 9 0 0
BITMAP
60
30
00
E0
60
60
C0
C0
E0
ENDCHAR

STARTCHAR iacute
ENCODING 237
SWIDTH 292 0
DWIDTH 4 0
BBX 4 9 0 0
BITMAP
30
60
00
E0
60
60
C0
C0
E0
ENDCHAR

STARTCHAR icircumflex
ENCODING 238
SWIDTH 292 0
DWIDTH 4 0
BBX 5 9 0 0
BITMAP
70
D8
00
E0
60
60
C0
C0
E0
ENDCHAR

STARTCHAR idieresis
ENCODING 239
SWIDTH 292 0
DWIDTH 4 0
BBX 5 9 0 0
BITMAP
D8
D8
00
E0
60
60
C0
C0
E0
ENDCHAR

STARTCHAR eth
ENCODING 240
SWIDTH 417 0
DWIDTH 6 0
BBX 7 10 0 0
BITMAP
36
18
38
0C
3C
6C
CC
CC
D8
70
ENDCHAR

STARTCHAR ntilde
ENCODING 241
SWIDTH 510 0
DWIDTH 8 0
BBX 7 9 1 0
BITMAP
3A
5C
00
EC
76
66
CC
CC
CE
ENDCHAR

STARTCHAR ograve
ENCODING 242
SWIDTH 448 0
DWIDTH 7 0
BBX 6 9 1 0
BITMAP
30
18
00
38
6C
CC
CC
D8
70
ENDCHAR

STARTCHAR oacute
ENCODING 243
SWIDTH 448 0
DWIDTH 7 0
BBX 6 9 1 0
BITMAP
0C
18
00
38
6C
CC
CC
D8
70
ENDCHAR

STARTCHAR ocircumflex
ENCODING 244
SWIDTH 448 0
DWIDTH 7 0
BBX 6 9 1 0
BITMAP
38
6C
00
38
6C
CC
CC
D8
70
ENDCHAR

STARTCHAR otilde
ENCODING 245
SWIDTH 448 0
DWIDTH 7 0
BBX 7 9 1 0
BITMAP
3A
5C
00
38
6C
CC
CC
D8
70
ENDCHAR

STARTCHAR odieresis
ENCODING 246
SWIDTH 448 0
DWIDTH 7 0
BBX 7 9 1 0
BITMAP
36
36
00
38
6C
CC
CC
D8
70
ENDCHAR

STARTCHAR divide
ENCODING 247
SWIDTH 668 0
DWIDTH 10 0
BBX 8 7 1 1
BITMAP
18
00
00
FF
00
00
18
ENDCHAR

STARTCHAR oslash
ENCODING 248
SWIDTH 448 0
DWIDTH 7 0
BBX 7 8 1 -1
BITMAP
02
3C
6C
DC
EC
D8
70
80
ENDCHAR

STARTCHAR ugrave
ENCODING 249
SWIDTH 500 0
DWIDTH 8 0
BBX 7 9 1 0
BITMAP
30
18
00
E6
66
66
CC
DC
6E
ENDCHAR

STARTCHAR uacute
ENCODING 250
SWIDTH 500 0
DWIDTH 8 0
BBX 7 9 1 0
BITMAP
0C
18
00
E6
66
66
CC
DC
6E
ENDCHAR

STARTCHAR ucircumflex
ENCODING 251
SWIDTH 500 0
DWIDTH 8 0
BBX 7 9 1 0
BITMAP
1C
36
00
E6
66
66
CC
DC
6E
ENDCHAR

STARTCHAR udieresis
ENCODING 252
SWIDTH 500 0
DWIDTH 8 0
BBX 7 9 1 0
BITMAP
36
36
00
E6
66
66
CC
DC
6E
ENDCHAR

STARTCHAR yacute
ENCODING 253
SWIDTH 458 0
DWIDTH 7 0
BBX 7 12 0 -3
BITMAP
0C
18
00
66
B2
34
34
38
30
30
60
F0
ENDCHAR

STARTCHAR thorn
ENCODING 254
SWIDTH 490 0
DWIDTH 7 0
BBX 8 13 -1 -3
BITMAP
1C
0C
0C
18
1E
1B
33
33
36
3C
60
60
F0
ENDCHAR

STARTCHAR ydieresis
ENCODING 255
SWIDTH 458 0
DWIDTH 7 0
BBX 7 12 0 -3
BITMAP
36
36
00
66
B2
34
34
38
30
30
60
F0
ENDCHAR
ENDFONT
